<svg xmlns="http://www.w3.org/2000/svg" width="36.3" height="14.014" viewBox="0 0 36.3 14.014">
  <g id="three-da-dark_" transform="translate(-2276 1459)">
    <g id="_3da_icon" transform="translate(2276 -1459)">
      <path id="Path_326" d="M7,5.1,9.7.5V0H.6V3.2H4.7L2.8,7.1v.4c1.6-.1,3.7-.2,3.7,1.8a1.546,1.546,0,0,1-1.4,1.6H5c-1,0-1.7-.5-1.7-1.4H0a4.265,4.265,0,0,0,2.3,3.8,4.845,4.845,0,0,0,2.6.7,4.691,4.691,0,0,0,5-4.3V9.2A3.8,3.8,0,0,0,7,5.1Z" fill="#001c29"/>
      <path id="Path_327" d="M17,0H12.3l3.1,3.2H17c4.6,0,4.6,7.4,0,7.4H15.2V3.4H11.5V13.8H17C26.4,13.7,26.4,0,17,0Z" fill="#001c29"/>
      <path id="Path_328" d="M30.6.7H29.1L23,13.3v.5h3.3l.7-1.6h5.3l.7,1.6h3.3v-.5ZM28.3,9.3l1.5-3.4,1.6,3.4Z" fill="#001c29"/>
    </g>
  </g>
</svg>
