<svg xmlns="http://www.w3.org/2000/svg" xmlns:xlink="http://www.w3.org/1999/xlink" width="78" height="78" viewBox="0 0 78 78"><defs><style>.a{fill:url(#a);}</style><linearGradient id="a" x1="-0.25" y1="0.5" x2="1.25" y2="0.5" gradientUnits="objectBoundingBox"><stop offset="0" stop-color="#9247ff"/><stop offset="1" stop-color="#9247ff"/></linearGradient></defs><path class="a" d="M958,554a38.879,38.879,0,1,1,15.181-3.065A38.754,38.754,0,0,1,958,554Zm0-71.5A32.5,32.5,0,1,0,990.5,515,32.537,32.537,0,0,0,958,482.5Zm-7.833,53.332h0l-16.71-16.71-.005-.005a2.056,2.056,0,0,1,.01-2.9l1.7-1.69a2.053,2.053,0,0,1,2.9.005l12.106,12.106,25.246-25.542.009-.008a2.053,2.053,0,0,1,2.9,0L980,502.763a2.059,2.059,0,0,1,.008,2.9l-29.845,30.172Z" transform="translate(-919 -476)"/></svg>