<svg width="180" height="52" viewBox="0 0 180 52" fill="none" xmlns="http://www.w3.org/2000/svg">
<rect x="0.75" y="0.75" width="178.5" height="50.5" rx="25.25" stroke="#242424" stroke-width="1.5"/>
<path d="M73.032 20.832L69.912 32H67.272L65.176 24.048L62.984 32L60.36 32.016L57.352 20.832H59.752L61.72 29.504L63.992 20.832H66.488L68.632 29.456L70.616 20.832H73.032ZM75.1506 22.08C74.756 22.08 74.4253 21.9573 74.1586 21.712C73.9026 21.456 73.7746 21.1413 73.7746 20.768C73.7746 20.3947 73.9026 20.0853 74.1586 19.84C74.4253 19.584 74.756 19.456 75.1506 19.456C75.5453 19.456 75.8706 19.584 76.1266 19.84C76.3933 20.0853 76.5266 20.3947 76.5266 20.768C76.5266 21.1413 76.3933 21.456 76.1266 21.712C75.8706 21.9573 75.5453 22.08 75.1506 22.08ZM76.2546 23.136V32H74.0146V23.136H76.2546ZM82.8998 23.008C83.9558 23.008 84.8091 23.344 85.4598 24.016C86.1104 24.6773 86.4358 25.6053 86.4358 26.8V32H84.1958V27.104C84.1958 26.4 84.0198 25.8613 83.6678 25.488C83.3158 25.104 82.8358 24.912 82.2278 24.912C81.6091 24.912 81.1184 25.104 80.7558 25.488C80.4038 25.8613 80.2278 26.4 80.2278 27.104V32H77.9878V23.136H80.2278V24.24C80.5264 23.856 80.9051 23.5573 81.3638 23.344C81.8331 23.12 82.3451 23.008 82.8998 23.008ZM87.5099 27.536C87.5099 26.64 87.6859 25.8453 88.0379 25.152C88.4005 24.4587 88.8912 23.9253 89.5099 23.552C90.1285 23.1787 90.8165 22.992 91.5739 22.992C92.1499 22.992 92.6992 23.12 93.2219 23.376C93.7445 23.6213 94.1605 23.952 94.4699 24.368V20.16H96.7419V32H94.4699V30.688C94.1925 31.1253 93.8032 31.4773 93.3019 31.744C92.8005 32.0107 92.2192 32.144 91.5579 32.144C90.8112 32.144 90.1285 31.952 89.5099 31.568C88.8912 31.184 88.4005 30.6453 88.0379 29.952C87.6859 29.248 87.5099 28.4427 87.5099 27.536ZM94.4859 27.568C94.4859 27.024 94.3792 26.56 94.1659 26.176C93.9525 25.7813 93.6645 25.4827 93.3019 25.28C92.9392 25.0667 92.5499 24.96 92.1339 24.96C91.7179 24.96 91.3339 25.0613 90.9819 25.264C90.6299 25.4667 90.3419 25.7653 90.1179 26.16C89.9045 26.544 89.7979 27.0027 89.7979 27.536C89.7979 28.0693 89.9045 28.5387 90.1179 28.944C90.3419 29.3387 90.6299 29.6427 90.9819 29.856C91.3445 30.0693 91.7285 30.176 92.1339 30.176C92.5499 30.176 92.9392 30.0747 93.3019 29.872C93.6645 29.6587 93.9525 29.36 94.1659 28.976C94.3792 28.5813 94.4859 28.112 94.4859 27.568ZM102.386 32.144C101.532 32.144 100.764 31.9573 100.082 31.584C99.399 31.2 98.8603 30.6613 98.4656 29.968C98.0816 29.2747 97.8896 28.4747 97.8896 27.568C97.8896 26.6613 98.087 25.8613 98.4816 25.168C98.887 24.4747 99.4363 23.9413 100.13 23.568C100.823 23.184 101.596 22.992 102.45 22.992C103.303 22.992 104.076 23.184 104.77 23.568C105.463 23.9413 106.007 24.4747 106.402 25.168C106.807 25.8613 107.01 26.6613 107.01 27.568C107.01 28.4747 106.802 29.2747 106.386 29.968C105.98 30.6613 105.426 31.2 104.722 31.584C104.028 31.9573 103.25 32.144 102.386 32.144ZM102.386 30.192C102.791 30.192 103.17 30.096 103.522 29.904C103.884 29.7013 104.172 29.4027 104.386 29.008C104.599 28.6133 104.706 28.1333 104.706 27.568C104.706 26.7253 104.482 26.08 104.034 25.632C103.596 25.1733 103.058 24.944 102.418 24.944C101.778 24.944 101.239 25.1733 100.802 25.632C100.375 26.08 100.162 26.7253 100.162 27.568C100.162 28.4107 100.37 29.0613 100.786 29.52C101.212 29.968 101.746 30.192 102.386 30.192ZM120.461 23.136L117.869 32H115.453L113.837 25.808L112.221 32H109.789L107.181 23.136H109.453L111.021 29.888L112.717 23.136H115.085L116.749 29.872L118.317 23.136H120.461ZM124.585 32.144C123.859 32.144 123.209 32.016 122.633 31.76C122.057 31.4933 121.598 31.136 121.257 30.688C120.926 30.24 120.745 29.744 120.713 29.2H122.969C123.011 29.5413 123.177 29.824 123.465 30.048C123.763 30.272 124.131 30.384 124.569 30.384C124.995 30.384 125.326 30.2987 125.561 30.128C125.806 29.9573 125.929 29.7387 125.929 29.472C125.929 29.184 125.779 28.9707 125.481 28.832C125.193 28.6827 124.729 28.5227 124.089 28.352C123.427 28.192 122.883 28.0267 122.457 27.856C122.041 27.6853 121.678 27.424 121.369 27.072C121.07 26.72 120.921 26.2453 120.921 25.648C120.921 25.1573 121.059 24.7093 121.337 24.304C121.625 23.8987 122.03 23.5787 122.553 23.344C123.086 23.1093 123.71 22.992 124.425 22.992C125.481 22.992 126.323 23.2587 126.953 23.792C127.582 24.3147 127.929 25.024 127.993 25.92H125.849C125.817 25.568 125.667 25.2907 125.401 25.088C125.145 24.8747 124.798 24.768 124.361 24.768C123.955 24.768 123.641 24.8427 123.417 24.992C123.203 25.1413 123.097 25.3493 123.097 25.616C123.097 25.9147 123.246 26.144 123.545 26.304C123.843 26.4533 124.307 26.608 124.937 26.768C125.577 26.928 126.105 27.0933 126.521 27.264C126.937 27.4347 127.294 27.7013 127.593 28.064C127.902 28.416 128.062 28.8853 128.073 29.472C128.073 29.984 127.929 30.4427 127.641 30.848C127.363 31.2533 126.958 31.5733 126.425 31.808C125.902 32.032 125.289 32.144 124.585 32.144ZM140.908 24.288C140.908 24.8853 140.764 25.4453 140.476 25.968C140.199 26.4907 139.756 26.912 139.148 27.232C138.551 27.552 137.793 27.712 136.876 27.712H135.004V32H132.764V20.832H136.876C137.74 20.832 138.476 20.9813 139.084 21.28C139.692 21.5787 140.145 21.9893 140.444 22.512C140.753 23.0347 140.908 23.6267 140.908 24.288ZM136.78 25.904C137.399 25.904 137.857 25.7653 138.156 25.488C138.455 25.2 138.604 24.8 138.604 24.288C138.604 23.2 137.996 22.656 136.78 22.656H135.004V25.904H136.78ZM141.474 26.4C141.474 25.3013 141.72 24.32 142.21 23.456C142.712 22.5813 143.389 21.904 144.242 21.424C145.106 20.9333 146.072 20.688 147.138 20.688C148.386 20.688 149.48 21.008 150.418 21.648C151.357 22.288 152.013 23.1733 152.386 24.304H149.81C149.554 23.7707 149.192 23.3707 148.722 23.104C148.264 22.8373 147.73 22.704 147.122 22.704C146.472 22.704 145.89 22.8587 145.378 23.168C144.877 23.4667 144.482 23.8933 144.194 24.448C143.917 25.0027 143.778 25.6533 143.778 26.4C143.778 27.136 143.917 27.7867 144.194 28.352C144.482 28.9067 144.877 29.3387 145.378 29.648C145.89 29.9467 146.472 30.096 147.122 30.096C147.73 30.096 148.264 29.9627 148.722 29.696C149.192 29.4187 149.554 29.0133 149.81 28.48H152.386C152.013 29.6213 151.357 30.512 150.418 31.152C149.49 31.7813 148.397 32.096 147.138 32.096C146.072 32.096 145.106 31.856 144.242 31.376C143.389 30.8853 142.712 30.208 142.21 29.344C141.72 28.48 141.474 27.4987 141.474 26.4Z" fill="#242424"/>
<path d="M27 18.7544L35.1963 17.6243V25.5476H27V18.7544ZM27 33.2456L35.1963 34.3748V26.5541H27V33.2465V33.2456ZM36.0981 34.4956L47 36V26.5523H36.0981V34.4956ZM36.0981 17.508V25.5476H47V16L36.0981 17.5044V17.508Z" fill="#242424"/>
</svg>
