<svg width="16" height="12" viewBox="0 0 16 12" fill="none" xmlns="http://www.w3.org/2000/svg">
<path d="M9.50113 10.3827C9.14065 10.7527 9.14065 11.3526 9.50113 11.7225C9.86162 12.0925 10.4461 12.0925 10.8066 11.7225L15.7296 6.66989C15.9099 6.48491 16 6.24245 16 6C16 5.87155 15.9751 5.74906 15.93 5.63736C15.8849 5.52563 15.8181 5.42094 15.7296 5.33011L10.8066 0.277478C10.4461 -0.0924926 9.86162 -0.0924926 9.50113 0.277478C9.14065 0.647449 9.14065 1.24729 9.50113 1.61726L12.8484 5.05263L0.923077 5.05263C0.413276 5.05263 5.68534e-07 5.47678 5.22933e-07 6C4.77332e-07 6.52322 0.413276 6.94737 0.923077 6.94737L12.8484 6.94737L9.50113 10.3827Z" fill="black"/>
</svg>
