<svg width="180" height="52" viewBox="0 0 180 52" fill="none" xmlns="http://www.w3.org/2000/svg">
<rect x="0.75" y="0.75" width="178.5" height="50.5" rx="25.25" stroke="#242424" stroke-width="1.5"/>
<path d="M75.952 29.872H71.504L70.768 32H68.416L72.432 20.816H75.04L79.056 32H76.688L75.952 29.872ZM75.344 28.08L73.728 23.408L72.112 28.08H75.344ZM82.3171 24.416C82.6051 24.0107 82.9998 23.6747 83.5011 23.408C84.0131 23.1307 84.5945 22.992 85.2451 22.992C86.0025 22.992 86.6851 23.1787 87.2931 23.552C87.9118 23.9253 88.3971 24.4587 88.7491 25.152C89.1118 25.8347 89.2931 26.6293 89.2931 27.536C89.2931 28.4427 89.1118 29.248 88.7491 29.952C88.3971 30.6453 87.9118 31.184 87.2931 31.568C86.6851 31.952 86.0025 32.144 85.2451 32.144C84.5945 32.144 84.0185 32.0107 83.5171 31.744C83.0265 31.4773 82.6265 31.1413 82.3171 30.736V36.224H80.0771V23.136H82.3171V24.416ZM87.0051 27.536C87.0051 27.0027 86.8931 26.544 86.6691 26.16C86.4558 25.7653 86.1678 25.4667 85.8051 25.264C85.4531 25.0613 85.0691 24.96 84.6531 24.96C84.2478 24.96 83.8638 25.0667 83.5011 25.28C83.1491 25.4827 82.8611 25.7813 82.6371 26.176C82.4238 26.5707 82.3171 27.0347 82.3171 27.568C82.3171 28.1013 82.4238 28.5653 82.6371 28.96C82.8611 29.3547 83.1491 29.6587 83.5011 29.872C83.8638 30.0747 84.2478 30.176 84.6531 30.176C85.0691 30.176 85.4531 30.0693 85.8051 29.856C86.1678 29.6427 86.4558 29.3387 86.6691 28.944C86.8931 28.5493 87.0051 28.08 87.0051 27.536ZM92.6809 24.416C92.9689 24.0107 93.3635 23.6747 93.8649 23.408C94.3769 23.1307 94.9582 22.992 95.6089 22.992C96.3662 22.992 97.0489 23.1787 97.6569 23.552C98.2755 23.9253 98.7609 24.4587 99.1129 25.152C99.4755 25.8347 99.6569 26.6293 99.6569 27.536C99.6569 28.4427 99.4755 29.248 99.1129 29.952C98.7609 30.6453 98.2755 31.184 97.6569 31.568C97.0489 31.952 96.3662 32.144 95.6089 32.144C94.9582 32.144 94.3822 32.0107 93.8809 31.744C93.3902 31.4773 92.9902 31.1413 92.6809 30.736V36.224H90.4409V23.136H92.6809V24.416ZM97.3689 27.536C97.3689 27.0027 97.2569 26.544 97.0329 26.16C96.8195 25.7653 96.5315 25.4667 96.1689 25.264C95.8169 25.0613 95.4329 24.96 95.0169 24.96C94.6115 24.96 94.2275 25.0667 93.8649 25.28C93.5129 25.4827 93.2249 25.7813 93.0009 26.176C92.7875 26.5707 92.6809 27.0347 92.6809 27.568C92.6809 28.1013 92.7875 28.5653 93.0009 28.96C93.2249 29.3547 93.5129 29.6587 93.8649 29.872C94.2275 30.0747 94.6115 30.176 95.0169 30.176C95.4329 30.176 95.8169 30.0693 96.1689 29.856C96.5315 29.6427 96.8195 29.3387 97.0329 28.944C97.2569 28.5493 97.3689 28.08 97.3689 27.536ZM107.993 32.112C107.214 32.112 106.51 31.9787 105.881 31.712C105.262 31.4453 104.772 31.0613 104.409 30.56C104.046 30.0587 103.86 29.4667 103.849 28.784H106.249C106.281 29.2427 106.441 29.6053 106.729 29.872C107.028 30.1387 107.433 30.272 107.945 30.272C108.468 30.272 108.878 30.1493 109.177 29.904C109.476 29.648 109.625 29.3173 109.625 28.912C109.625 28.5813 109.524 28.3093 109.321 28.096C109.118 27.8827 108.862 27.7173 108.553 27.6C108.254 27.472 107.838 27.3333 107.305 27.184C106.58 26.9707 105.988 26.7627 105.529 26.56C105.081 26.3467 104.692 26.032 104.361 25.616C104.041 25.1893 103.881 24.624 103.881 23.92C103.881 23.2587 104.046 22.6827 104.377 22.192C104.708 21.7013 105.172 21.328 105.769 21.072C106.366 20.8053 107.049 20.672 107.817 20.672C108.969 20.672 109.902 20.9547 110.617 21.52C111.342 22.0747 111.742 22.8533 111.817 23.856H109.353C109.332 23.472 109.166 23.1573 108.857 22.912C108.558 22.656 108.158 22.528 107.657 22.528C107.22 22.528 106.868 22.64 106.601 22.864C106.345 23.088 106.217 23.4133 106.217 23.84C106.217 24.1387 106.313 24.3893 106.505 24.592C106.708 24.784 106.953 24.944 107.241 25.072C107.54 25.1893 107.956 25.328 108.489 25.488C109.214 25.7013 109.806 25.9147 110.265 26.128C110.724 26.3413 111.118 26.6613 111.449 27.088C111.78 27.5147 111.945 28.0747 111.945 28.768C111.945 29.3653 111.79 29.92 111.481 30.432C111.172 30.944 110.718 31.3547 110.121 31.664C109.524 31.9627 108.814 32.112 107.993 32.112ZM116.015 24.976V29.264C116.015 29.5627 116.084 29.7813 116.223 29.92C116.372 30.048 116.618 30.112 116.959 30.112H117.999V32H116.591C114.703 32 113.759 31.0827 113.759 29.248V24.976H112.703V23.136H113.759V20.944H116.015V23.136H117.999V24.976H116.015ZM123.066 32.144C122.213 32.144 121.445 31.9573 120.762 31.584C120.08 31.2 119.541 30.6613 119.146 29.968C118.762 29.2747 118.57 28.4747 118.57 27.568C118.57 26.6613 118.768 25.8613 119.162 25.168C119.568 24.4747 120.117 23.9413 120.81 23.568C121.504 23.184 122.277 22.992 123.13 22.992C123.984 22.992 124.757 23.184 125.45 23.568C126.144 23.9413 126.688 24.4747 127.082 25.168C127.488 25.8613 127.69 26.6613 127.69 27.568C127.69 28.4747 127.482 29.2747 127.066 29.968C126.661 30.6613 126.106 31.2 125.402 31.584C124.709 31.9573 123.93 32.144 123.066 32.144ZM123.066 30.192C123.472 30.192 123.85 30.096 124.202 29.904C124.565 29.7013 124.853 29.4027 125.066 29.008C125.28 28.6133 125.386 28.1333 125.386 27.568C125.386 26.7253 125.162 26.08 124.714 25.632C124.277 25.1733 123.738 24.944 123.098 24.944C122.458 24.944 121.92 25.1733 121.482 25.632C121.056 26.08 120.842 26.7253 120.842 27.568C120.842 28.4107 121.05 29.0613 121.466 29.52C121.893 29.968 122.426 30.192 123.066 30.192ZM131.093 24.512C131.381 24.0427 131.755 23.6747 132.213 23.408C132.683 23.1413 133.216 23.008 133.813 23.008V25.36H133.221C132.517 25.36 131.984 25.5253 131.621 25.856C131.269 26.1867 131.093 26.7627 131.093 27.584V32H128.853V23.136H131.093V24.512ZM143.082 27.376C143.082 27.696 143.061 27.984 143.018 28.24H136.538C136.591 28.88 136.815 29.3813 137.21 29.744C137.605 30.1067 138.09 30.288 138.666 30.288C139.498 30.288 140.09 29.9307 140.442 29.216H142.858C142.602 30.0693 142.111 30.7733 141.386 31.328C140.661 31.872 139.77 32.144 138.714 32.144C137.861 32.144 137.093 31.9573 136.41 31.584C135.738 31.2 135.21 30.6613 134.826 29.968C134.453 29.2747 134.266 28.4747 134.266 27.568C134.266 26.6507 134.453 25.8453 134.826 25.152C135.199 24.4587 135.722 23.9253 136.394 23.552C137.066 23.1787 137.839 22.992 138.714 22.992C139.557 22.992 140.309 23.1733 140.97 23.536C141.642 23.8987 142.159 24.416 142.522 25.088C142.895 25.7493 143.082 26.512 143.082 27.376ZM140.762 26.736C140.751 26.16 140.543 25.7013 140.138 25.36C139.733 25.008 139.237 24.832 138.65 24.832C138.095 24.832 137.626 25.0027 137.242 25.344C136.869 25.6747 136.639 26.1387 136.554 26.736H140.762Z" fill="#242424"/>
<path d="M54.0341 26.6995C54.0561 25.0012 54.9733 23.3943 56.4283 22.5047C55.5104 21.2011 53.9729 20.3746 52.3733 20.3249C50.6672 20.1468 49.0132 21.34 48.1438 21.34C47.2576 21.34 45.919 20.3425 44.4776 20.372C42.5987 20.4324 40.8472 21.4946 39.9331 23.128C37.9681 26.5108 39.4338 31.4825 41.3161 34.217C42.2578 35.556 43.3584 37.0517 44.7985 36.9986C46.2078 36.9405 46.7341 36.105 48.4352 36.105C50.1205 36.105 50.6143 36.9986 52.0837 36.9649C53.5958 36.9405 54.5486 35.62 55.4573 34.2683C56.1339 33.3142 56.6546 32.2598 57 31.144C55.2229 30.3966 54.0361 28.6182 54.0341 26.6995Z" fill="#242424"/>
<path d="M51.2587 18.5265C52.0832 17.5423 52.4894 16.2772 52.391 15C51.1314 15.1316 49.9678 15.7302 49.1321 16.6767C48.315 17.6014 47.8897 18.8442 47.9701 20.0727C49.2303 20.0856 50.4691 19.5031 51.2587 18.5265Z" fill="#242424"/>
</svg>
