<svg width="52" height="52" viewBox="0 0 52 52" fill="none" xmlns="http://www.w3.org/2000/svg">
<path d="M26.0192 7.75084e-06C22.6015 -0.00262909 19.2169 0.667551 16.0589 1.97222C12.901 3.27688 10.0316 5.19042 7.61495 7.60338C5.19833 10.0163 3.28187 12.8814 1.97522 16.0345C0.66857 19.1877 -0.00263309 22.5672 7.76261e-06 25.9796C0.00913601 40.0923 11.8467 51.9118 25.9808 51.921C29.3982 51.9233 32.7826 51.2531 35.9403 49.9484C39.0981 48.6438 41.9673 46.7304 44.3839 44.3177C46.8004 41.905 48.7169 39.0403 50.0238 35.8874C51.3306 32.7345 52.0022 29.3554 52 25.9432C51.989 11.8323 40.1515 0.0127679 26.0192 7.75084e-06ZM28.3505 39.3741C28.0183 39.921 27.6696 40.6282 26.8681 40.6282C26.2109 40.6282 25.6522 39.9811 25.3583 39.4397L12.1388 15.3997C11.7736 14.7635 11.4669 14.0307 11.4085 13.3179C11.3752 13.0623 11.3981 12.8024 11.4755 12.5565C11.5528 12.3105 11.6829 12.0843 11.8566 11.8935C12.0303 11.7027 12.2434 11.552 12.4813 11.4517C12.7192 11.3514 12.9761 11.304 13.2341 11.3128C16.2611 11.2964 19.8448 11.2763 22.8699 11.3292C24.1132 11.351 25.0041 11.876 25.6267 13.1393C27.0306 15.9994 27.5345 18.072 29.3199 20.6568C29.3948 20.7668 29.4772 20.8716 29.5664 20.9704C31.6732 23.2581 36.7156 24.7638 40.597 17.9881L28.3505 39.3741Z" fill="#9247FF"/>
</svg>
