<svg width="180" height="52" viewBox="0 0 180 52" fill="none" xmlns="http://www.w3.org/2000/svg">
<rect x="0.75" y="0.75" width="178.5" height="50.5" rx="25.25" stroke="#242424" stroke-width="1.5"/>
<path d="M68.88 24.192C68.624 23.7227 68.272 23.3653 67.824 23.12C67.376 22.8747 66.8533 22.752 66.256 22.752C65.5947 22.752 65.008 22.9013 64.496 23.2C63.984 23.4987 63.584 23.9253 63.296 24.48C63.008 25.0347 62.864 25.6747 62.864 26.4C62.864 27.1467 63.008 27.7973 63.296 28.352C63.5947 28.9067 64.0053 29.3333 64.528 29.632C65.0507 29.9307 65.6587 30.08 66.352 30.08C67.2053 30.08 67.904 29.856 68.448 29.408C68.992 28.9493 69.3493 28.3147 69.52 27.504H65.68V25.792H71.728V27.744C71.5787 28.5227 71.2587 29.2427 70.768 29.904C70.2773 30.5653 69.6427 31.0987 68.864 31.504C68.096 31.8987 67.232 32.096 66.272 32.096C65.1947 32.096 64.2187 31.856 63.344 31.376C62.48 30.8853 61.7973 30.208 61.296 29.344C60.8053 28.48 60.56 27.4987 60.56 26.4C60.56 25.3013 60.8053 24.32 61.296 23.456C61.7973 22.5813 62.48 21.904 63.344 21.424C64.2187 20.9333 65.1893 20.688 66.256 20.688C67.5147 20.688 68.608 20.9973 69.536 21.616C70.464 22.224 71.104 23.0827 71.456 24.192H68.88ZM76.8413 32.144C75.9879 32.144 75.2199 31.9573 74.5373 31.584C73.8546 31.2 73.3159 30.6613 72.9213 29.968C72.5373 29.2747 72.3453 28.4747 72.3453 27.568C72.3453 26.6613 72.5426 25.8613 72.9373 25.168C73.3426 24.4747 73.8919 23.9413 74.5853 23.568C75.2786 23.184 76.0519 22.992 76.9053 22.992C77.7586 22.992 78.5319 23.184 79.2253 23.568C79.9186 23.9413 80.4626 24.4747 80.8573 25.168C81.2626 25.8613 81.4653 26.6613 81.4653 27.568C81.4653 28.4747 81.2573 29.2747 80.8413 29.968C80.4359 30.6613 79.8813 31.2 79.1773 31.584C78.4839 31.9573 77.7053 32.144 76.8413 32.144ZM76.8413 30.192C77.2466 30.192 77.6253 30.096 77.9773 29.904C78.3399 29.7013 78.6279 29.4027 78.8413 29.008C79.0546 28.6133 79.1613 28.1333 79.1613 27.568C79.1613 26.7253 78.9373 26.08 78.4893 25.632C78.0519 25.1733 77.5133 24.944 76.8733 24.944C76.2333 24.944 75.6946 25.1733 75.2573 25.632C74.8306 26.08 74.6173 26.7253 74.6173 27.568C74.6173 28.4107 74.8253 29.0613 75.2413 29.52C75.6679 29.968 76.2013 30.192 76.8413 30.192ZM86.5644 32.144C85.711 32.144 84.943 31.9573 84.2604 31.584C83.5777 31.2 83.039 30.6613 82.6444 29.968C82.2604 29.2747 82.0684 28.4747 82.0684 27.568C82.0684 26.6613 82.2657 25.8613 82.6604 25.168C83.0657 24.4747 83.615 23.9413 84.3084 23.568C85.0017 23.184 85.775 22.992 86.6284 22.992C87.4817 22.992 88.255 23.184 88.9484 23.568C89.6417 23.9413 90.1857 24.4747 90.5804 25.168C90.9857 25.8613 91.1884 26.6613 91.1884 27.568C91.1884 28.4747 90.9804 29.2747 90.5644 29.968C90.159 30.6613 89.6044 31.2 88.9004 31.584C88.207 31.9573 87.4284 32.144 86.5644 32.144ZM86.5644 30.192C86.9697 30.192 87.3484 30.096 87.7004 29.904C88.063 29.7013 88.351 29.4027 88.5644 29.008C88.7777 28.6133 88.8844 28.1333 88.8844 27.568C88.8844 26.7253 88.6604 26.08 88.2124 25.632C87.775 25.1733 87.2364 24.944 86.5964 24.944C85.9564 24.944 85.4177 25.1733 84.9804 25.632C84.5537 26.08 84.3404 26.7253 84.3404 27.568C84.3404 28.4107 84.5484 29.0613 84.9644 29.52C85.391 29.968 85.9244 30.192 86.5644 30.192ZM95.8235 22.992C96.4848 22.992 97.0662 23.1253 97.5675 23.392C98.0688 23.648 98.4635 23.984 98.7515 24.4V23.136H101.007V32.064C101.007 32.8853 100.842 33.616 100.512 34.256C100.181 34.9067 99.6848 35.4187 99.0235 35.792C98.3622 36.176 97.5622 36.368 96.6235 36.368C95.3648 36.368 94.3302 36.0747 93.5195 35.488C92.7195 34.9013 92.2662 34.1013 92.1595 33.088H94.3835C94.5008 33.4933 94.7515 33.8133 95.1355 34.048C95.5302 34.2933 96.0048 34.416 96.5595 34.416C97.2102 34.416 97.7382 34.2187 98.1435 33.824C98.5488 33.44 98.7515 32.8533 98.7515 32.064V30.688C98.4635 31.104 98.0635 31.4507 97.5515 31.728C97.0502 32.0053 96.4742 32.144 95.8235 32.144C95.0768 32.144 94.3942 31.952 93.7755 31.568C93.1568 31.184 92.6662 30.6453 92.3035 29.952C91.9515 29.248 91.7755 28.4427 91.7755 27.536C91.7755 26.64 91.9515 25.8453 92.3035 25.152C92.6662 24.4587 93.1515 23.9253 93.7595 23.552C94.3782 23.1787 95.0662 22.992 95.8235 22.992ZM98.7515 27.568C98.7515 27.024 98.6448 26.56 98.4315 26.176C98.2182 25.7813 97.9302 25.4827 97.5675 25.28C97.2048 25.0667 96.8155 24.96 96.3995 24.96C95.9835 24.96 95.5995 25.0613 95.2475 25.264C94.8955 25.4667 94.6075 25.7653 94.3835 26.16C94.1702 26.544 94.0635 27.0027 94.0635 27.536C94.0635 28.0693 94.1702 28.5387 94.3835 28.944C94.6075 29.3387 94.8955 29.6427 95.2475 29.856C95.6102 30.0693 95.9942 30.176 96.3995 30.176C96.8155 30.176 97.2048 30.0747 97.5675 29.872C97.9302 29.6587 98.2182 29.36 98.4315 28.976C98.6448 28.5813 98.7515 28.112 98.7515 27.568ZM104.955 20.16V32H102.715V20.16H104.955ZM114.928 27.376C114.928 27.696 114.907 27.984 114.864 28.24H108.384C108.438 28.88 108.662 29.3813 109.056 29.744C109.451 30.1067 109.936 30.288 110.512 30.288C111.344 30.288 111.936 29.9307 112.288 29.216H114.704C114.448 30.0693 113.958 30.7733 113.232 31.328C112.507 31.872 111.616 32.144 110.56 32.144C109.707 32.144 108.939 31.9573 108.256 31.584C107.584 31.2 107.056 30.6613 106.672 29.968C106.299 29.2747 106.112 28.4747 106.112 27.568C106.112 26.6507 106.299 25.8453 106.672 25.152C107.046 24.4587 107.568 23.9253 108.24 23.552C108.912 23.1787 109.686 22.992 110.56 22.992C111.403 22.992 112.155 23.1733 112.816 23.536C113.488 23.8987 114.006 24.416 114.368 25.088C114.742 25.7493 114.928 26.512 114.928 27.376ZM112.608 26.736C112.598 26.16 112.39 25.7013 111.984 25.36C111.579 25.008 111.083 24.832 110.496 24.832C109.942 24.832 109.472 25.0027 109.088 25.344C108.715 25.6747 108.486 26.1387 108.4 26.736H112.608ZM127.56 24.288C127.56 24.8853 127.416 25.4453 127.128 25.968C126.851 26.4907 126.408 26.912 125.8 27.232C125.203 27.552 124.445 27.712 123.528 27.712H121.656V32H119.416V20.832H123.528C124.392 20.832 125.128 20.9813 125.736 21.28C126.344 21.5787 126.797 21.9893 127.096 22.512C127.405 23.0347 127.56 23.6267 127.56 24.288ZM123.432 25.904C124.051 25.904 124.509 25.7653 124.808 25.488C125.107 25.2 125.256 24.8 125.256 24.288C125.256 23.2 124.648 22.656 123.432 22.656H121.656V25.904H123.432ZM130.91 20.16V32H128.67V20.16H130.91ZM132.067 27.536C132.067 26.64 132.243 25.8453 132.595 25.152C132.958 24.4587 133.443 23.9253 134.051 23.552C134.67 23.1787 135.358 22.992 136.115 22.992C136.777 22.992 137.353 23.1253 137.843 23.392C138.345 23.6587 138.745 23.9947 139.043 24.4V23.136H141.299V32H139.043V30.704C138.755 31.12 138.355 31.4667 137.843 31.744C137.342 32.0107 136.761 32.144 136.099 32.144C135.353 32.144 134.67 31.952 134.051 31.568C133.443 31.184 132.958 30.6453 132.595 29.952C132.243 29.248 132.067 28.4427 132.067 27.536ZM139.043 27.568C139.043 27.024 138.937 26.56 138.723 26.176C138.51 25.7813 138.222 25.4827 137.859 25.28C137.497 25.0667 137.107 24.96 136.691 24.96C136.275 24.96 135.891 25.0613 135.539 25.264C135.187 25.4667 134.899 25.7653 134.675 26.16C134.462 26.544 134.355 27.0027 134.355 27.536C134.355 28.0693 134.462 28.5387 134.675 28.944C134.899 29.3387 135.187 29.6427 135.539 29.856C135.902 30.0693 136.286 30.176 136.691 30.176C137.107 30.176 137.497 30.0747 137.859 29.872C138.222 29.6587 138.51 29.36 138.723 28.976C138.937 28.5813 139.043 28.112 139.043 27.568ZM151.487 23.136L145.999 36.192H143.615L145.535 31.776L141.983 23.136H144.495L146.783 29.328L149.103 23.136H151.487Z" fill="#242424"/>
<path d="M31 16.3501V35.649C31.0001 35.6909 31.0111 35.7318 31.0316 35.7666C31.0521 35.8014 31.0813 35.8285 31.1153 35.8446C31.1494 35.8607 31.1869 35.8651 31.2231 35.8571C31.2593 35.8491 31.2926 35.8292 31.3189 35.7998L40.1732 26.0001L31.3189 16.1994C31.2926 16.17 31.2593 16.15 31.2231 16.1421C31.1869 16.1341 31.1494 16.1384 31.1153 16.1545C31.0813 16.1706 31.0521 16.1978 31.0316 16.2326C31.0111 16.2674 31.0001 16.3083 31 16.3501Z" fill="#242424"/>
<path d="M43.886 21.9733L32.7838 15.0316L32.7769 15.0272C32.5856 14.9093 32.4039 15.203 32.5606 15.3738L41.2635 24.818L43.886 21.9733Z" fill="#242424"/>
<path d="M32.5611 36.6262C32.4036 36.797 32.5854 37.0907 32.7775 36.9728L32.7844 36.9684L43.8858 30.0267L41.2632 27.181L32.5611 36.6262Z" fill="#242424"/>
<path d="M48.3675 24.7728L45.2672 22.8351L42.3521 26.0005L45.2672 29.1644L48.3675 27.2281C49.2108 26.6993 49.2108 25.3017 48.3675 24.7728Z" fill="#242424"/>
</svg>
