<svg width="160" height="160" viewBox="0 0 160 160" fill="none" xmlns="http://www.w3.org/2000/svg">
<path d="M80.0562 6.58489e-05C35.8427 -0.0561139 -0.0561139 35.8427 6.58489e-05 80.0562C0.0562456 123.539 36.4607 160 79.9438 160C124.157 160.056 160.056 124.157 160 79.9438C160 36.4607 123.539 0.0562456 80.0562 6.58489e-05ZM87.2472 121.348C86.236 123.034 85.1685 125.225 82.6966 125.225C80.6742 125.225 78.9326 123.258 78.0337 121.573L37.3596 47.4719C36.236 45.5056 35.2809 43.2585 35.1124 41.0674C34.7753 37.3034 37.5281 34.8877 40.7304 34.8877C50.0562 34.8315 61.0674 34.7753 70.3933 34.9439C74.2135 35 76.9663 36.6292 78.8764 40.5056C83.2022 49.3259 84.7753 55.7304 90.2247 63.6517C90.4494 63.9888 90.7303 64.3259 91.0112 64.6068C97.4719 71.6854 113.034 76.2921 124.944 55.3933L87.2472 121.348Z" fill="#9B9B9B"/>
</svg>
